<svg xmlns="http://www.w3.org/2000/svg" viewBox="0 0 23 23"><path d="M1 1h7v7h-7zM9 1h4v2h1v5h-1v-2h-1v2h-1v-2h-1v3h2v1h-1v1h-1v1h-1v1h-1v-1h-3v-3h1v1h1v1h1v-1h-1v-1h2v-5h3v-2h-3zM15 1h7v7h-7zM2 2v5h5v-5zM16 2v5h5v-5zM3 3h3v3h-3zM17 3h3v3h-3zM1 9h1v1h-1zM13 9h6v1h1v1h1v1h1v2h-1v-1h-1v-1h-1v-1h-1v1h-1v-1h-2v-1h-1v3h-1v1h-1v-1h-1v1h-1v1h1v1h1v1h-1v3h-1v-2h-1v-1h1v-1h-1v-3h1v-1h1v-1h1v1h1zM21 9h1v1h-1zM2 10h2v2h-1v-1h-1zM1 11h1v1h-1zM1 13h1v1h-1zM3 13h5v1h-5zM14 13h1v1h-1zM18 13h1v1h1v1h1v1h-2v-1h-1v1h1v1h-2v-2h-1v-1h2zM11 14h1v1h-1zM13 14h1v1h-1zM1 15h7v7h-7zM12 15h1v1h-1zM15 15h1v1h-1zM2 16v5h5v-5zM14 16h1v2h1v2h-1v2h-1v-1h-1v-1h1zM3 17h3v3h-3zM12 17h1v1h-1zM16 17h1v1h-1zM17 18h2v1h1v1h-2v1h-1v1h-1v-2h1zM20 18h2v1h-2zM9 21h1v1h-1zM12 21h1v1h-1zM18 21h1v1h-1zM21 21h1v1h-1z"/></svg>